<svg xmlns="http://www.w3.org/2000/svg" xmlns:xlink="http://www.w3.org/1999/xlink" style="enable-background:new 0 0 32 32" width="32" height="32" x="0" y="0" version="1.1" viewBox="0 0 32 32" xml:space="preserve"><g id="fullscreen_x5F_exit"><g><polygon points="24.586 27.414 29.172 32 32 29.172 27.414 24.586 32 20 20 20 20 32" style="fill:#4e4e50"/><polygon points="0 12 12 12 12 0 7.414 4.586 2.875 .043 .047 2.871 4.586 7.414" style="fill:#4e4e50"/><polygon points="0 29.172 2.828 32 7.414 27.414 12 32 12 20 0 20 4.586 24.586" style="fill:#4e4e50"/><polygon points="20 12 32 12 27.414 7.414 31.961 2.871 29.133 .043 24.586 4.586 20 0" style="fill:#4e4e50"/></g></g></svg>