<svg xmlns="http://www.w3.org/2000/svg" xmlns:xlink="http://www.w3.org/1999/xlink" id="Layer_1" width="47.958" height="51.1" x="0" y="0" enable-background="new 0 0 47.958 51.1" version="1.1" viewBox="0 0 47.958 51.1" xml:space="preserve"><g><defs><circle id="SVGID_1_" cx="24.38" cy="25.87" r="15.274"/></defs><clipPath id="SVGID_2_"><use overflow="visible" xlink:href="#SVGID_1_"/></clipPath><g clip-path="url(#SVGID_2_)"><path fill="#FFF" d="M30.843,22.272v7.715c0,2.93-2.899,5.314-6.463,5.314s-6.463-2.384-6.463-5.314v-7.715h-1.475v7.715 c0,3.743,3.561,6.789,7.938,6.789s7.938-3.045,7.938-6.789v-7.715H30.843z"/><g><path fill="#FFF" d="M24.38,33.404c-2.678,0-4.848-2.171-4.848-4.848V17.768c0-2.678,2.171-4.848,4.848-4.848 s4.848,2.171,4.848,4.848v10.788C29.228,31.233,27.058,33.404,24.38,33.404z"/></g><rect width="2.499" height="5.646" x="23.131" y="35.889" fill="#FFF"/></g></g><circle cx="24.38" cy="25.87" r="22.171" fill="none" stroke="#FFF" stroke-miterlimit="10" stroke-width="3"/></svg>