<svg xmlns="http://www.w3.org/2000/svg" xmlns:xlink="http://www.w3.org/1999/xlink" id="Layer_1" width="36.25" height="38.625" x="0" y="0" enable-background="new 0 0 36.25 38.625" version="1.1" viewBox="0 0 36.25 38.625" xml:space="preserve"><g><g><g><path fill="#FFF" d="M18.099,38.626C8.119,38.626,0,30.507,0,20.527S8.119,2.428,18.099,2.428s18.098,8.119,18.098,18.099 S28.079,38.626,18.099,38.626z M18.099,7.777c-7.03,0-12.75,5.72-12.75,12.75s5.72,12.75,12.75,12.75s12.75-5.72,12.75-12.75 S25.129,7.777,18.099,7.777z"/></g></g><g><g><circle cx="18.099" cy="20.527" r="2.656" fill="#FFF"/></g></g><g><rect width="1.337" height="8.213" x="17.43" y="12.355" fill="#FFF"/></g><g><rect width="8.213" height="1.337" x="18.099" y="19.858" fill="#FFF"/></g><g><rect width="2.674" height="7.592" x="28.945" y="1.9" fill="#FFF" transform="matrix(0.7071 0.7071 -0.7071 0.7071 12.8975 -19.7446)"/></g><g><rect width="8.79" height="2.674" x="27.658" y="2.716" fill="#FFF" transform="matrix(0.7071 0.7071 -0.7071 0.7071 12.2528 -21.4768)"/></g></g></svg>