<svg xmlns="http://www.w3.org/2000/svg" xmlns:xlink="http://www.w3.org/1999/xlink" id="Layer_1" width="60" height="60" x="0" y="0" enable-background="new 0 0 60 60" version="1.1" viewBox="0 0 60 60" xml:space="preserve"><g><defs><path id="SVGID_1_" d="M19.858,13.394c-4.796-1.816-10.432-0.14-13.097,4.099c-2.666,4.238-1.436,9.562,2.676,12.467 c-4.103,2.906-5.339,8.225-2.676,12.459c2.667,4.241,8.301,5.911,13.099,4.091c0.677,4.73,5.078,8.373,10.415,8.373 c5.338,0,9.739-3.643,10.416-8.373c4.799,1.82,10.432,0.15,13.1-4.091c2.663-4.234,1.426-9.553-2.676-12.459 c4.111-2.905,5.342-8.229,2.676-12.467c-2.664-4.239-8.301-5.915-13.098-4.099C40.01,8.671,35.608,5.03,30.275,5.03 C24.945,5.03,20.541,8.671,19.858,13.394"/></defs><use fill="#FFF" overflow="visible" xlink:href="#SVGID_1_"/><clipPath id="SVGID_2_"><use overflow="visible" xlink:href="#SVGID_1_"/></clipPath><use fill="none" stroke="#000" stroke-miterlimit="10" overflow="visible" xlink:href="#SVGID_1_"/></g></svg>